# xmcd
#
# Track frame offsets:
#	150
#	18691
#	35989
#	56404
#	70343
#	86809
#	103120
#	122274
#	137771
#	155218
#	174811
#	192753
#	208600
#	225760
#	241392
#
# Disc length: 3486 seconds
#
# Revision: 1
# Processed by: cddbd v1.5.1PL2 Copyright (c) Steve Scherf et al.
# Submitted via: audiograbber 1.83.01
#
DISCID=ca0d9c0f
DTITLE=лайяопоукос (By G.Z.) - ои лецакес епитувиес
DYEAR=2006
DGENRE=каийа
TTITLE0=кицо ецы, кицо есу
TTITLE1=л' ейаьес
TTITLE2=евы латиа йаи бкепы
TTITLE3=лг ле кес ецыистг
TTITLE4=етси жеуцоум ои амтяес
TTITLE5=йаи тыяа ои дуо лас
TTITLE6=ти ма йамы ейеи
TTITLE7=о текеутаиос цуяос
TTITLE8=де выяале
TTITLE9=деутеяа паяоусиа
TTITLE10=екеухеяои жукайислемои
TTITLE11=мтяопг соу
TTITLE12=йаи ма тгс вяыстас йаи йати
TTITLE13=фгтгла ацапгс
TTITLE14=аподеийтийа стоивеиа
EXTD=
EXTT0=
EXTT1=
EXTT2=
EXTT3=
EXTT4=
EXTT5=
EXTT6=
EXTT7=
EXTT8=
EXTT9=
EXTT10=
EXTT11=
EXTT12=
EXTT13=
EXTT14=
PLAYORDER=
